<mxfile modified="2022-10-05T04:08:16.273Z" host="app.diagrams.net" agent="5.0 (Windows NT 10.0; Win64; x64) AppleWebKit/537.36 (KHTML, like Gecko) Chrome/106.0.0.0 Safari/537.36" etag="tMqH5jrG8Sg6IWlfzeMo" version="20.2.5" type="github">
  <diagram id="WI9T0HZ2pTsCkuznbFz-" name="Page-1">
    <mxGraphModel dx="782" dy="545" grid="1" gridSize="10" guides="1" tooltips="1" connect="1" arrows="1" fold="1" page="1" pageScale="1" pageWidth="1169" pageHeight="827" math="0" shadow="0">
      <root>
        <mxCell id="0" />
        <mxCell id="1" parent="0" />
        <mxCell id="-7acq_uzCSQk52zFmW1_-22" value="VPC" style="sketch=0;outlineConnect=0;gradientColor=none;html=1;whiteSpace=wrap;fontSize=12;fontStyle=0;shape=mxgraph.aws4.group;grIcon=mxgraph.aws4.group_vpc;strokeColor=#B6BABF;fillColor=none;verticalAlign=top;align=left;spacingLeft=30;fontColor=#B6BABF;dashed=0;" vertex="1" parent="1">
          <mxGeometry x="100" y="110" width="630" height="430" as="geometry" />
        </mxCell>
        <mxCell id="-7acq_uzCSQk52zFmW1_-17" style="edgeStyle=orthogonalEdgeStyle;rounded=0;orthogonalLoop=1;jettySize=auto;html=1;entryX=0.01;entryY=0.367;entryDx=0;entryDy=0;entryPerimeter=0;startArrow=block;startFill=1;" edge="1" parent="1" source="AcxdMaKK0mU5kZiv2lnr-5" target="-7acq_uzCSQk52zFmW1_-14">
          <mxGeometry relative="1" as="geometry" />
        </mxCell>
        <mxCell id="AcxdMaKK0mU5kZiv2lnr-5" value="Web-App&lt;br&gt;Front-End&lt;br&gt;[Vue App]" style="aspect=fixed;html=1;perimeter=none;align=center;shadow=0;dashed=0;image;fontSize=12;image=img/lib/mscae/TaskVM.svg;" parent="1" vertex="1">
          <mxGeometry x="177" y="120" width="63" height="60" as="geometry" />
        </mxCell>
        <mxCell id="-7acq_uzCSQk52zFmW1_-7" style="edgeStyle=orthogonalEdgeStyle;rounded=0;orthogonalLoop=1;jettySize=auto;html=1;entryX=0.5;entryY=0;entryDx=0;entryDy=0;startArrow=block;startFill=1;" edge="1" parent="1" source="-7acq_uzCSQk52zFmW1_-4" target="-7acq_uzCSQk52zFmW1_-6">
          <mxGeometry relative="1" as="geometry" />
        </mxCell>
        <mxCell id="-7acq_uzCSQk52zFmW1_-4" value="ISE- Core API" style="rounded=1;whiteSpace=wrap;html=1;fontStyle=1;fillColor=#dae8fc;strokeColor=#6c8ebf;" vertex="1" parent="1">
          <mxGeometry x="280" y="200" width="160" height="80" as="geometry" />
        </mxCell>
        <mxCell id="-7acq_uzCSQk52zFmW1_-8" style="edgeStyle=orthogonalEdgeStyle;rounded=0;orthogonalLoop=1;jettySize=auto;html=1;entryX=0.615;entryY=-0.033;entryDx=0;entryDy=0;entryPerimeter=0;startArrow=block;startFill=1;" edge="1" parent="1" source="-7acq_uzCSQk52zFmW1_-5" target="-7acq_uzCSQk52zFmW1_-6">
          <mxGeometry relative="1" as="geometry" />
        </mxCell>
        <mxCell id="-7acq_uzCSQk52zFmW1_-5" value="ISE API" style="rounded=1;whiteSpace=wrap;html=1;fontStyle=1;fillColor=#dae8fc;strokeColor=#6c8ebf;" vertex="1" parent="1">
          <mxGeometry x="480" y="200" width="160" height="80" as="geometry" />
        </mxCell>
        <mxCell id="-7acq_uzCSQk52zFmW1_-26" value="" style="edgeStyle=orthogonalEdgeStyle;rounded=0;orthogonalLoop=1;jettySize=auto;html=1;startArrow=block;startFill=1;" edge="1" parent="1" source="-7acq_uzCSQk52zFmW1_-6" target="-7acq_uzCSQk52zFmW1_-25">
          <mxGeometry relative="1" as="geometry" />
        </mxCell>
        <mxCell id="-7acq_uzCSQk52zFmW1_-33" style="edgeStyle=orthogonalEdgeStyle;rounded=0;orthogonalLoop=1;jettySize=auto;html=1;exitX=0.75;exitY=1;exitDx=0;exitDy=0;startArrow=block;startFill=1;entryX=0.5;entryY=0;entryDx=0;entryDy=0;entryPerimeter=0;" edge="1" parent="1" source="-7acq_uzCSQk52zFmW1_-6" target="-7acq_uzCSQk52zFmW1_-30">
          <mxGeometry relative="1" as="geometry">
            <mxPoint x="640" y="430" as="targetPoint" />
          </mxGeometry>
        </mxCell>
        <mxCell id="-7acq_uzCSQk52zFmW1_-6" value="Shared_Lib" style="rounded=0;whiteSpace=wrap;html=1;fontStyle=1;fillColor=#f5f5f5;fontColor=#333333;strokeColor=#666666;" vertex="1" parent="1">
          <mxGeometry x="280" y="320" width="360" height="40" as="geometry" />
        </mxCell>
        <mxCell id="-7acq_uzCSQk52zFmW1_-9" value="CINT" style="ellipse;shape=cloud;whiteSpace=wrap;html=1;fontStyle=1;fillColor=#fff2cc;strokeColor=#d6b656;" vertex="1" parent="1">
          <mxGeometry x="760" y="275" width="130" height="60" as="geometry" />
        </mxCell>
        <mxCell id="-7acq_uzCSQk52zFmW1_-11" style="edgeStyle=orthogonalEdgeStyle;rounded=0;orthogonalLoop=1;jettySize=auto;html=1;entryX=0.307;entryY=1.067;entryDx=0;entryDy=0;entryPerimeter=0;startArrow=block;startFill=1;" edge="1" parent="1" source="-7acq_uzCSQk52zFmW1_-10" target="-7acq_uzCSQk52zFmW1_-6">
          <mxGeometry relative="1" as="geometry" />
        </mxCell>
        <mxCell id="-7acq_uzCSQk52zFmW1_-10" value="ISE-DB" style="verticalLabelPosition=bottom;html=1;verticalAlign=top;align=center;strokeColor=none;fillColor=#00BEF2;shape=mxgraph.azure.database;" vertex="1" parent="1">
          <mxGeometry x="280" y="400" width="40" height="60" as="geometry" />
        </mxCell>
        <mxCell id="-7acq_uzCSQk52zFmW1_-20" style="edgeStyle=orthogonalEdgeStyle;rounded=0;orthogonalLoop=1;jettySize=auto;html=1;entryX=0;entryY=0.75;entryDx=0;entryDy=0;startArrow=block;startFill=1;" edge="1" parent="1" source="-7acq_uzCSQk52zFmW1_-12" target="-7acq_uzCSQk52zFmW1_-6">
          <mxGeometry relative="1" as="geometry">
            <Array as="points">
              <mxPoint x="220" y="350" />
            </Array>
          </mxGeometry>
        </mxCell>
        <mxCell id="-7acq_uzCSQk52zFmW1_-12" value="Eagle-DB" style="verticalLabelPosition=bottom;html=1;verticalAlign=top;align=center;strokeColor=none;fillColor=#00BEF2;shape=mxgraph.azure.database;" vertex="1" parent="1">
          <mxGeometry x="200" y="400" width="40" height="61" as="geometry" />
        </mxCell>
        <mxCell id="-7acq_uzCSQk52zFmW1_-15" style="edgeStyle=orthogonalEdgeStyle;rounded=0;orthogonalLoop=1;jettySize=auto;html=1;entryX=0.446;entryY=0.008;entryDx=0;entryDy=0;entryPerimeter=0;startArrow=block;startFill=1;exitX=0.01;exitY=0.544;exitDx=0;exitDy=0;exitPerimeter=0;" edge="1" parent="1" source="-7acq_uzCSQk52zFmW1_-14" target="-7acq_uzCSQk52zFmW1_-4">
          <mxGeometry relative="1" as="geometry" />
        </mxCell>
        <mxCell id="-7acq_uzCSQk52zFmW1_-16" style="edgeStyle=orthogonalEdgeStyle;rounded=0;orthogonalLoop=1;jettySize=auto;html=1;startArrow=block;startFill=1;entryX=0.5;entryY=0;entryDx=0;entryDy=0;" edge="1" parent="1" source="-7acq_uzCSQk52zFmW1_-14" target="-7acq_uzCSQk52zFmW1_-5">
          <mxGeometry relative="1" as="geometry">
            <mxPoint x="550" y="190" as="targetPoint" />
            <Array as="points">
              <mxPoint x="520" y="130" />
              <mxPoint x="520" y="180" />
              <mxPoint x="560" y="180" />
            </Array>
          </mxGeometry>
        </mxCell>
        <mxCell id="-7acq_uzCSQk52zFmW1_-14" value="" style="aspect=fixed;html=1;points=[];align=center;image;fontSize=12;image=img/lib/azure2/integration/API_Management_Services.svg;" vertex="1" parent="1">
          <mxGeometry x="440" y="100" width="65" height="60" as="geometry" />
        </mxCell>
        <mxCell id="-7acq_uzCSQk52zFmW1_-19" style="edgeStyle=orthogonalEdgeStyle;rounded=0;orthogonalLoop=1;jettySize=auto;html=1;entryX=0.482;entryY=0;entryDx=0;entryDy=0;entryPerimeter=0;startArrow=block;startFill=1;" edge="1" parent="1" source="-7acq_uzCSQk52zFmW1_-18" target="-7acq_uzCSQk52zFmW1_-14">
          <mxGeometry relative="1" as="geometry" />
        </mxCell>
        <mxCell id="-7acq_uzCSQk52zFmW1_-18" value="Ext_User" style="sketch=0;pointerEvents=1;shadow=0;dashed=0;html=1;strokeColor=none;fillColor=#505050;labelPosition=center;verticalLabelPosition=bottom;verticalAlign=top;outlineConnect=0;align=center;shape=mxgraph.office.users.user_external;" vertex="1" parent="1">
          <mxGeometry x="600" y="30" width="59" height="50" as="geometry" />
        </mxCell>
        <mxCell id="-7acq_uzCSQk52zFmW1_-23" value="Other-Ext&lt;br&gt;Services" style="ellipse;shape=cloud;whiteSpace=wrap;html=1;fontStyle=1;fillColor=#fff2cc;strokeColor=#d6b656;" vertex="1" parent="1">
          <mxGeometry x="760" y="350" width="130" height="60" as="geometry" />
        </mxCell>
        <mxCell id="-7acq_uzCSQk52zFmW1_-27" style="edgeStyle=orthogonalEdgeStyle;rounded=0;orthogonalLoop=1;jettySize=auto;html=1;entryX=0.16;entryY=0.55;entryDx=0;entryDy=0;entryPerimeter=0;startArrow=block;startFill=1;" edge="1" parent="1" source="-7acq_uzCSQk52zFmW1_-25" target="-7acq_uzCSQk52zFmW1_-9">
          <mxGeometry relative="1" as="geometry" />
        </mxCell>
        <mxCell id="-7acq_uzCSQk52zFmW1_-28" style="edgeStyle=orthogonalEdgeStyle;rounded=0;orthogonalLoop=1;jettySize=auto;html=1;entryX=0.07;entryY=0.4;entryDx=0;entryDy=0;entryPerimeter=0;startArrow=block;startFill=1;" edge="1" parent="1" source="-7acq_uzCSQk52zFmW1_-25" target="-7acq_uzCSQk52zFmW1_-23">
          <mxGeometry relative="1" as="geometry" />
        </mxCell>
        <mxCell id="-7acq_uzCSQk52zFmW1_-25" value="" style="rhombus;whiteSpace=wrap;html=1;fillColor=#f5f5f5;strokeColor=#666666;fontColor=#333333;rounded=0;fontStyle=1;" vertex="1" parent="1">
          <mxGeometry x="680" y="325" width="30" height="30" as="geometry" />
        </mxCell>
        <mxCell id="-7acq_uzCSQk52zFmW1_-29" value="" style="sketch=0;aspect=fixed;html=1;points=[];align=center;image;fontSize=12;image=img/lib/mscae/Web_App_Firewall.svg;" vertex="1" parent="1">
          <mxGeometry x="40" y="110" width="50" height="50" as="geometry" />
        </mxCell>
        <mxCell id="-7acq_uzCSQk52zFmW1_-32" value="" style="group" vertex="1" connectable="0" parent="1">
          <mxGeometry x="620" y="430" width="90" height="100" as="geometry" />
        </mxCell>
        <mxCell id="-7acq_uzCSQk52zFmW1_-30" value="" style="sketch=0;html=1;dashed=0;whitespace=wrap;fillColor=#2875E2;strokeColor=#ffffff;points=[[0.005,0.63,0],[0.1,0.2,0],[0.9,0.2,0],[0.5,0,0],[0.995,0.63,0],[0.72,0.99,0],[0.5,1,0],[0.28,0.99,0]];shape=mxgraph.kubernetes.icon;prIcon=api;align=left;verticalAlign=bottom;" vertex="1" parent="-7acq_uzCSQk52zFmW1_-32">
          <mxGeometry width="90" height="70" as="geometry" />
        </mxCell>
        <mxCell id="-7acq_uzCSQk52zFmW1_-31" value="Mainstream" style="text;html=1;strokeColor=none;fillColor=none;align=center;verticalAlign=middle;whiteSpace=wrap;rounded=0;" vertex="1" parent="-7acq_uzCSQk52zFmW1_-32">
          <mxGeometry x="15" y="70" width="60" height="30" as="geometry" />
        </mxCell>
      </root>
    </mxGraphModel>
  </diagram>
</mxfile>
